0
SECTION
2
HEADER
9
$INSUNITS
70
1
9
$ACADVER
1
AC1014
9
$HANDSEED
5
FFFF
0
ENDSEC
0
SECTION
2
TABLES
0
TABLE
2
VPORT
5
8
100
AcDbSymbolTable
0
ENDTAB
0
TABLE
2
LTYPE
5
5
100
AcDbSymbolTable
0
LTYPE
5
14
100
AcDbSymbolTableRecord
100
AcDbLinetypeTableRecord
2
BYBLOCK
70
0
0
LTYPE
5
15
100
AcDbSymbolTableRecord
100
AcDbLinetypeTableRecord
2
BYLAYER
70
0
0
ENDTAB
0
TABLE
2
LAYER
5
2
100
AcDbSymbolTable
70
2
0
LAYER
5
50
100
AcDbSymbolTableRecord
100
AcDbLayerTableRecord
2
0
70
0
6
CONTINUOUS
0
ENDTAB
0
TABLE
2
STYLE
5
3
100
AcDbSymbolTable
70
1
0
STYLE
5
11
100
AcDbSymbolTableRecord
100
AcDbTextStyleTableRecord
2
STANDARD
70
0
0
ENDTAB
0
TABLE
2
VIEW
5
6
100
AcDbSymbolTable
70
0
0
ENDTAB
0
TABLE
2
UCS
5
7
100
AcDbSymbolTable
70
0
0
ENDTAB
0
TABLE
2
APPID
5
9
100
AcDbSymbolTable
70
2
0
APPID
5
12
100
AcDbSymbolTableRecord
100
AcDbRegAppTableRecord
2
ACAD
70
0
0
ENDTAB
0
TABLE
2
DIMSTYLE
5
A
100
AcDbSymbolTable
70
1
0
ENDTAB
0
TABLE
2
BLOCK_RECORD
5
1
100
AcDbSymbolTable
70
1
0
BLOCK_RECORD
5
1F
100
AcDbSymbolTableRecord
100
AcDbBlockTableRecord
2
*MODEL_SPACE
0
BLOCK_RECORD
5
1B
100
AcDbSymbolTableRecord
100
AcDbBlockTableRecord
2
*PAPER_SPACE
0
ENDTAB
0
ENDSEC
0
SECTION
2
BLOCKS
0
BLOCK
5
20
100
AcDbEntity
100
AcDbBlockBegin
2
*MODEL_SPACE
0
ENDBLK
5
21
100
AcDbEntity
100
AcDbBlockEnd
0
BLOCK
5
1C
100
AcDbEntity
100
AcDbBlockBegin
2
*PAPER_SPACE
0
ENDBLK
5
1D
100
AcDbEntity
100
AcDbBlockEnd
0
ENDSEC
0
SECTION
2
ENTITIES
0
LWPOLYLINE
5
100
100
AcDbEntity
8
0
100
AcDbPolyline
90
154
70
1
43
0.0
10
-4.3400415205672651
20
-7.6763388396437513
42
-0.35688599305615232
10
-4.6501863508981724
20
-7.8522304045983526
42
0.037454269138192373
10
-5.9765174725173829
20
-7.7519592536399093
42
0.037454269138192185
10
-7.3028485941365888
20
-7.8522304045983535
42
-0.35688599305615404
10
-7.6129934244674971
20
-7.6763388396437513
10
-7.6464877390265498
20
-7.6658716667913547
10
-8.4609734081253656
20
-7.665871667333799
10
-8.4971584866560548
20
-7.6711001484683266
10
-8.4928446335095806
20
-7.7014256238368004
10
-8.4603123684740584
20
-7.7211445482690007
10
-8.3910114865011387
20
-7.7513204348975711
42
-0.34693216267358273
10
-8.3803904039593746
20
-7.815780341245409
42
-0.41175953475207655
10
-8.4826338513035129
20
-7.8348271138905572
42
-0.059983872544787396
10
-8.5510195353814531
20
-7.8023355942376984
42
-0.13703745216219518
10
-8.6706961922057086
20
-7.668336604262918
10
-8.8242303272587552
20
-7.6658716675757255
10
-8.8440649337263331
20
-7.6907444212703471
10
-8.8154316624710507
20
-7.7139739787166732
10
-8.7810738454692601
20
-7.729659422025084
10
-8.7448921860849183
20
-7.7423573653626345
42
-0.5693515310870858
10
-8.7358427820923374
20
-7.8315407216271664
42
-0.22460251372048043
10
-8.8453949907643921
20
-7.8267601518870054
42
-0.19210848778914028
10
-9.0030791438783666
20
-7.6778971742488284
10
-9.0359071922057073
20
-7.668336604749376
10
-9.1894413272587556
20
-7.6658716680621843
10
-9.2092759337263317
20
-7.6907444217568077
10
-9.1806426624710511
20
-7.7139739792031339
10
-9.1462848454692587
20
-7.7296594225115411
10
-9.1101031860849222
20
-7.7423573658490987
42
-0.5693515310870515
10
-9.1010537820923378
20
-7.8315407221136226
42
-0.22460251372047493
10
-9.2106059907643907
20
-7.8267601523734625
42
-0.19210848778914028
10
-9.3682901438783652
20
-7.6778971747352864
10
-9.3999938299847177
20
-7.6658716682024117
10
-9.5546523272587596
20
-7.6658716685486414
10
-9.5744869337263303
20
-7.6907444222432639
10
-9.5458536624710497
20
-7.7139739796895901
10
-9.5114958454692591
20
-7.729659422998
10
-9.4753141860849208
20
-7.7423573663355558
42
-0.56935153108705594
10
-9.4662647820923347
20
-7.8315407226000806
42
-0.22460251372047751
10
-9.5758169907643911
20
-7.8267601528599204
42
-0.19210848778914064
10
-9.7335011438783674
20
-7.6778971752217435
42
-0.16876548972692137
10
-9.7335011440158254
20
-7.4714999707798446
42
-0.19210848778913892
10
-9.5758169911001367
20
-7.3226369929316313
42
-0.22460251372048368
10
-9.4662647824344486
20
-7.3178564230455487
42
-0.56935153108706593
10
-9.4753141863082391
20
-7.4070397793221296
10
-9.5114958456756682
20
-7.419737722707878
10
-9.5458536626565618
20
-7.4354231660620513
10
-9.5744869338809
20
-7.4586527235465194
10
-9.5546523273801967
20
-7.4835254772147195
10
-9.3999938301061565
20
-7.4835254773549469
10
-9.368290144015825
20
-7.4714999707798437
42
-0.19210848778913892
10
-9.2106059911001381
20
-7.3226369929316313
42
-0.22460251372048112
10
-9.10105378243445
20
-7.3178564230455505
42
-0.56935153108706227
10
-9.1101031863082405
20
-7.4070397793221296
10
-9.1462848456756642
20
-7.419737722707878
10
-9.1806426626565631
20
-7.4354231660620513
10
-9.2092759338809014
20
-7.4586527235465203
10
-9.189441327380198
20
-7.4835254772147213
10
-9.0359071923304324
20
-7.4810605403230221
10
-9.0030791440158282
20
-7.4714999707798464
42
-0.19210848778914236
10
-8.8453949911001359
20
-7.3226369929316331
42
-0.22460251372047843
10
-8.7358427824344496
20
-7.3178564230455461
42
-0.56935153108706815
10
-8.7448921863082401
20
-7.4070397793221323
10
-8.7810738456756638
20
-7.4197377227078798
10
-8.815431662656561
20
-7.4354231660620496
10
-8.8440649338809045
20
-7.4586527235465194
10
-8.8242303273801994
20
-7.4835254772147213
10
-8.6706961923304355
20
-7.481060540323023
42
-0.13703745216219562
10
-8.551019535684663
20
-7.3470615501888332
42
-0.059983872544785946
10
-8.4826338516500019
20
-7.3145700304448882
42
-0.41175953475208393
10
-8.3803904042804955
20
-7.3336168029538475
42
-0.34693216267356936
10
-8.3910114867363959
20
-7.3980767093158288
10
-8.4603123686691237
20
-7.4282525960367112
10
-8.4928446336783772
20
-7.4479715205122421
10
-8.4971584867844605
20
-7.4782969958864616
10
-8.4609734082468044
20
-7.4835254769727948
10
-7.6464877391479922
20
-7.4835254764303478
10
-7.6129934246028759
20
-7.4730583035333389
42
-0.35688599343157668
10
-7.3028485941365791
20
-7.2971667382289729
42
0.037454269138192373
10
-5.9765174725173722
20
-7.3974378891874073
42
0.037454269138191998
10
-4.6501863508981733
20
-7.2971667382289649
42
-0.35688599343156618
10
-4.340041520431881
20
-7.473058303533338
10
-4.30654720588677
20
-7.4835254764303478
10
-3.4920615367879564
20
-7.4835254769727948
10
-3.4558764582503017
20
-7.4782969958864616
10
-3.4601903113563846
20
-7.4479715205122421
10
-3.4927225763656393
20
-7.4282525960367112
10
-3.5620234582983659
20
-7.3980767093158306
42
-0.34693216267357535
10
-3.5726445407542666
20
-7.3336168029538458
42
-0.41175953475208327
10
-3.4704010933847584
20
-7.3145700304448855
42
-0.059983872544785946
10
-3.4020154093500983
20
-7.347061550188835
42
-0.13703745216219348
10
-3.2823387527043302
20
-7.4810605403230221
10
-3.1288046176545645
20
-7.4835254772147213
10
-3.1089700111538603
20
-7.4586527235465194
10
-3.1376032823781985
20
-7.4354231660620496
10
-3.1719610993590961
20
-7.4197377227078798
10
-3.2081427587265217
20
-7.4070397793221288
42
-0.56935153108704828
10
-3.217192162600313
20
-7.3178564230455514
42
-0.22460251372048229
10
-3.1076399539346267
20
-7.3226369929316348
42
-0.19210848778913972
10
-2.9499558010189362
20
-7.4714999707798446
10
-2.917127752704328
20
-7.4810605403230221
10
-2.7635936176545637
20
-7.4835254772147195
10
-2.7437590111538603
20
-7.4586527235465203
10
-2.7723922823781986
20
-7.4354231660620513
10
-2.8067500993590961
20
-7.419737722707878
10
-2.8429317587265217
20
-7.4070397793221288
42
-0.5693515310870515
10
-2.8519811626003131
20
-7.3178564230455487
42
-0.22460251372048134
10
-2.7424289539346276
20
-7.3226369929316348
42
-0.19210848778913994
10
-2.5847448010189367
20
-7.4714999707798446
10
-2.5530411149286043
20
-7.4835254773549478
10
-2.3983826176545633
20
-7.4835254772147195
10
-2.3785480111538608
20
-7.4586527235465194
10
-2.4071812823781982
20
-7.4354231660620513
10
-2.4415390993590962
20
-7.419737722707878
10
-2.4777207587265226
20
-7.4070397793221288
42
-0.56935153108706427
10
-2.4867701626003127
20
-7.3178564230455505
42
-0.22460251372047926
10
-2.3772179539346268
20
-7.3226369929316331
42
-0.19210848778913811
10
-2.2195338010189367
20
-7.471499970779842
42
-0.16876548972692343
10
-2.2195338011563952
20
-7.6778971752217435
42
-0.19210848778913833
10
-2.3772179542703702
20
-7.8267601528599204
42
-0.22460251372047901
10
-2.4867701629424266
20
-7.8315407226000833
42
-0.56935153108706094
10
-2.4777207589498427
20
-7.7423573663355549
10
-2.4415390995655026
20
-7.729659422998
10
-2.407181282563712
20
-7.713973979689591
10
-2.3785480113084327
20
-7.6907444222432639
10
-2.3983826177760048
20
-7.6658716685486414
10
-2.5530411150500445
20
-7.6658716682024117
10
-2.5847448011563987
20
-7.6778971747352891
42
-0.19210848778913717
10
-2.7424289542703697
20
-7.8267601523734625
42
-0.22460251372047774
10
-2.8519811629424257
20
-7.8315407221136253
42
-0.5693515310870606
10
-2.8429317589498422
20
-7.742357365849097
10
-2.8067500995655026
20
-7.7296594225115411
10
-2.772392282563712
20
-7.7139739792031321
10
-2.7437590113084322
20
-7.6907444217568077
10
-2.7635936177760057
20
-7.6658716680621843
10
-2.9171277528290531
20
-7.6683366047493768
10
-2.9499558011563938
20
-7.6778971742488284
42
-0.19210848778914016
10
-3.1076399542703714
20
-7.8267601518870036
42
-0.22460251372048484
10
-3.217192162942426
20
-7.8315407216271637
42
-0.56935153108705339
10
-3.2081427589498426
20
-7.7423573653626381
10
-3.1719610995655025
20
-7.729659422025084
10
-3.1376032825637119
20
-7.7139739787166732
10
-3.1089700113084322
20
-7.6907444212703471
10
-3.128804617776006
20
-7.6658716675757255
10
-3.2823387528290535
20
-7.668336604262918
42
-0.13703745216219437
10
-3.4020154096533091
20
-7.8023355942376984
42
-0.059983872544785051
10
-3.4704010937312453
20
-7.8348271138905572
42
-0.41175953475208282
10
-3.5726445410753862
20
-7.8157803412454108
42
-0.34693216267359006
10
-3.5620234585336252
20
-7.7513204348975711
10
-3.4927225765607042
20
-7.7211445482690007
10
-3.4601903115251842
20
-7.7014256238368022
10
-3.4558764583787078
20
-7.6711001484683266
10
-3.4920615369093984
20
-7.6658716673338008
10
-4.3065472060082106
20
-7.6658716667913547
0
ENDSEC
0
SECTION
2
OBJECTS
0
DICTIONARY
5
C
100
AcDbDictionary
3
ACAD_GROUP
350
D
3
ACAD_MLINESTYLE
350
17
0
DICTIONARY
5
D
100
AcDbDictionary
0
DICTIONARY
5
1A
330
C
100
AcDbDictionary
0
DICTIONARY
5
17
100
AcDbDictionary
0
ENDSEC
0
EOF
