  0
SECTION
  2
HEADER
  9
$ACADVER
  1
AC1009
  9
$INSBASE
 10
0.0
 20
0.0
 30
0.0
  9
$EXTMIN
 10
3030.6269721026637853
 20
1671.0519973350699274
 30
0.0
  9
$EXTMAX
 10
3230.6269721026637853
 20
1791.9429555709100441
 30
0.0
  9
$LIMMIN
 10
0.0
 20
0.0
  9
$LIMMAX
 10
420.0
 20
297.0
  9
$ORTHOMODE
 70
     0
  9
$REGENMODE
 70
     1
  9
$FILLMODE
 70
     1
  9
$QTEXTMODE
 70
     0
  9
$MIRRTEXT
 70
     0
  9
$DRAGMODE
 70
     2
  9
$LTSCALE
 40
1.0
  9
$OSMODE
 70
  3255
  9
$ATTMODE
 70
     1
  9
$TEXTSIZE
 40
2.5
  9
$TRACEWID
 40
1.0
  9
$TEXTSTYLE
  7
STANDARD
  9
$CLAYER
  8
0
  9
$CELTYPE
  6
BYLAYER
  9
$CECOLOR
 62
   256
  9
$DIMSCALE
 40
1.0
  9
$DIMASZ
 40
2.5
  9
$DIMEXO
 40
0.625
  9
$DIMDLI
 40
3.75
  9
$DIMRND
 40
0.0
  9
$DIMDLE
 40
0.0
  9
$DIMEXE
 40
1.25
  9
$DIMTP
 40
0.0
  9
$DIMTM
 40
0.0
  9
$DIMTXT
 40
2.5
  9
$DIMCEN
 40
2.5
  9
$DIMTSZ
 40
0.0
  9
$DIMTOL
 70
     0
  9
$DIMLIM
 70
     0
  9
$DIMTIH
 70
     0
  9
$DIMTOH
 70
     0
  9
$DIMSE1
 70
     0
  9
$DIMSE2
 70
     0
  9
$DIMTAD
 70
     1
  9
$DIMZIN
 70
     8
  9
$DIMBLK
  1

  9
$DIMASO
 70
     1
  9
$DIMSHO
 70
     1
  9
$DIMPOST
  1

  9
$DIMAPOST
  1

  9
$DIMALT
 70
     0
  9
$DIMALTD
 70
     3
  9
$DIMALTF
 40
0.03937007874016
  9
$DIMLFAC
 40
1.0
  9
$DIMTOFL
 70
     1
  9
$DIMTVP
 40
0.0
  9
$DIMTIX
 70
     0
  9
$DIMSOXD
 70
     0
  9
$DIMSAH
 70
     0
  9
$DIMBLK1
  1

  9
$DIMBLK2
  1

  9
$DIMSTYLE
  2
ISO-25
  9
$DIMCLRD
 70
     0
  9
$DIMCLRE
 70
     0
  9
$DIMCLRT
 70
     0
  9
$DIMTFAC
 40
1.0
  9
$DIMGAP
 40
0.625
  9
$LUNITS
 70
     2
  9
$LUPREC
 70
     4
  9
$SKETCHINC
 40
1.0
  9
$FILLETRAD
 40
10.0
  9
$AUNITS
 70
     0
  9
$AUPREC
 70
     0
  9
$MENU
  1
.
  9
$ELEVATION
 40
0.0
  9
$PELEVATION
 40
0.0
  9
$THICKNESS
 40
0.0
  9
$LIMCHECK
 70
     0
  9
$BLIPMODE
 70
     0
  9
$CHAMFERA
 40
0.0
  9
$CHAMFERB
 40
0.0
  9
$SKPOLY
 70
     0
  9
$TDCREATE
 40
2458926.6316435188055038
  9
$TDUPDATE
 40
2458929.6307754628360271
  9
$TDINDWG
 40
0.0229166667
  9
$TDUSRTIMER
 40
0.0229166667
  9
$USRTIMER
 70
     1
  9
$ANGBASE
 50
0.0
  9
$ANGDIR
 70
     0
  9
$PDMODE
 70
     0
  9
$PDSIZE
 40
0.0
  9
$PLINEWID
 40
0.0
  9
$COORDS
 70
     1
  9
$SPLFRAME
 70
     0
  9
$SPLINETYPE
 70
     6
  9
$SPLINESEGS
 70
     8
  9
$ATTDIA
 70
     1
  9
$ATTREQ
 70
     1
  9
$HANDLING
 70
     1
  9
$HANDSEED
  5
505
  9
$SURFTAB1
 70
     6
  9
$SURFTAB2
 70
     6
  9
$SURFTYPE
 70
     6
  9
$SURFU
 70
     6
  9
$SURFV
 70
     6
  9
$UCSNAME
  2

  9
$UCSORG
 10
0.0
 20
0.0
 30
0.0
  9
$UCSXDIR
 10
1.0
 20
0.0
 30
0.0
  9
$UCSYDIR
 10
0.0
 20
1.0
 30
0.0
  9
$PUCSNAME
  2

  9
$PUCSORG
 10
0.0
 20
0.0
 30
0.0
  9
$PUCSXDIR
 10
1.0
 20
0.0
 30
0.0
  9
$PUCSYDIR
 10
0.0
 20
1.0
 30
0.0
  9
$USERI1
 70
     0
  9
$USERI2
 70
     0
  9
$USERI3
 70
     0
  9
$USERI4
 70
     0
  9
$USERI5
 70
     0
  9
$USERR1
 40
0.0
  9
$USERR2
 40
0.0
  9
$USERR3
 40
0.0
  9
$USERR4
 40
0.0
  9
$USERR5
 40
0.0
  9
$WORLDVIEW
 70
     1
  9
$SHADEDGE
 70
     3
  9
$SHADEDIF
 70
    70
  9
$TILEMODE
 70
     1
  9
$MAXACTVP
 70
    64
  9
$PLIMCHECK
 70
     0
  9
$PEXTMIN
 10
0.0
 20
0.0
 30
0.0
  9
$PEXTMAX
 10
0.0
 20
0.0
 30
0.0
  9
$PLIMMIN
 10
0.0
 20
0.0
  9
$PLIMMAX
 10
12.0
 20
9.0
  9
$UNITMODE
 70
     0
  9
$VISRETAIN
 70
     1
  9
$PLINEGEN
 70
     0
  9
$PSLTSCALE
 70
     1
  0
ENDSEC
  0
SECTION
  2
TABLES
  0
TABLE
  2
VPORT
 70
     1
  0
VPORT
  2
*ACTIVE
 70
     0
 10
0.0
 20
0.0
 11
1.0
 21
1.0
 12
3098.9828212060801889
 22
1762.6491939430409275
 13
0.0
 23
0.0
 14
10.0
 24
10.0
 15
10.0
 25
10.0
 16
0.0
 26
0.0
 36
1.0
 17
0.0
 27
0.0
 37
0.0
 40
173.5132068316445952
 41
2.310875842155919
 42
50.0
 43
0.0
 44
0.0
 50
0.0
 51
0.0
 71
     0
 72
  1000
 73
     1
 74
     3
 75
     0
 76
     1
 77
     0
 78
     0
  0
ENDTAB
  0
TABLE
  2
LTYPE
 70
     1
  0
LTYPE
  2
CONTINUOUS
 70
     0
  3
Solid line
 72
    65
 73
     0
 40
0.0
  0
ENDTAB
  0
TABLE
  2
LAYER
 70
     1
  0
LAYER
  2
0
 70
     0
 62
     7
  6
CONTINUOUS
  0
ENDTAB
  0
TABLE
  2
STYLE
 70
     2
  0
STYLE
  2
STANDARD
 70
     0
 40
0.0
 41
1.0
 50
0.0
 71
     0
 42
2.5
  3
txt
  4

  0
STYLE
  2
ANNOTATIVE
 70
     0
 40
0.0
 41
1.0
 50
0.0
 71
     0
 42
2.5
  3
txt
  4

  0
ENDTAB
  0
TABLE
  2
VIEW
 70
     1
  0
ENDTAB
  0
TABLE
  2
UCS
 70
     0
  0
ENDTAB
  0
TABLE
  2
APPID
 70
     9
  0
APPID
  2
ACAD
 70
     0
  0
APPID
  2
ACAD_PSEXT
 70
     0
  0
APPID
  2
ACADANNOPO
 70
     0
  0
APPID
  2
ACADANNOTATIVE
 70
     0
  0
APPID
  2
ACAD_DSTYLE_DIMJAG
 70
     0
  0
APPID
  2
ACAD_DSTYLE_DIMTALN
 70
     0
  0
APPID
  2
ACAD_MLEADERVER
 70
     0
  0
APPID
  2
ACAD_NAV_VCDISPLAY
 70
     0
  0
APPID
  2
ACAD_EXEMPT_FROM_CAD_STANDARDS
 70
     0
  0
ENDTAB
  0
TABLE
  2
DIMSTYLE
 70
     3
  0
DIMSTYLE
  2
STANDARD
 70
     0
  3

  4

  5

  6

  7

 40
1.0
 41
0.18
 42
0.0625
 43
0.38
 44
0.18
 45
0.0
 46
0.0
 47
0.0
 48
0.0
140
0.18
141
0.09
142
0.0
143
25.3999999999999986
144
1.0
145
0.0
146
1.0
147
0.09
 71
     0
 72
     0
 73
     1
 74
     1
 75
     0
 76
     0
 77
     0
 78
     0
170
     0
171
     2
172
     0
173
     0
174
     0
175
     0
176
     0
177
     0
178
     0
  0
DIMSTYLE
  2
ANNOTATIVE
 70
     0
  3

  4

  5

  6

  7

 40
0.0
 41
2.5
 42
0.625
 43
3.75
 44
1.25
 45
0.0
 46
0.0
 47
0.0
 48
0.0
140
2.5
141
2.5
142
0.0
143
0.03937007874016
144
1.0
145
0.0
146
1.0
147
0.625
 71
     0
 72
     0
 73
     0
 74
     0
 75
     0
 76
     0
 77
     1
 78
     8
170
     0
171
     3
172
     1
173
     0
174
     0
175
     0
176
     0
177
     0
178
     0
  0
DIMSTYLE
  2
ISO-25
 70
     0
  3

  4

  5

  6

  7

 40
1.0
 41
2.5
 42
0.625
 43
3.75
 44
1.25
 45
0.0
 46
0.0
 47
0.0
 48
0.0
140
2.5
141
2.5
142
0.0
143
0.03937007874016
144
1.0
145
0.0
146
1.0
147
0.625
 71
     0
 72
     0
 73
     0
 74
     0
 75
     0
 76
     0
 77
     1
 78
     8
170
     0
171
     3
172
     1
173
     0
174
     0
175
     0
176
     0
177
     0
178
     0
  0
ENDTAB
  0
ENDSEC
  0
SECTION
  2
BLOCKS
  0
BLOCK
  8
0
  2
$MODEL_SPACE
 70
     0
 10
0.0
 20
0.0
 30
0.0
  3
$MODEL_SPACE
  1

  0
ENDBLK
  5
21
  8
0
  0
BLOCK
 67
     1
  8
0
  2
$PAPER_SPACE
 70
     0
 10
0.0
 20
0.0
 30
0.0
  3
$PAPER_SPACE
  1

  0
ENDBLK
  5
D5
 67
     1
  8
0
  0
ENDSEC
  0
SECTION
  2
ENTITIES
  0
POLYLINE
  5
28A
  8
0
 66
     1
 10
0.0
 20
0.0
 30
0.0
 70
     1
  0
VERTEX
  5
4AC
  8
0
 10
3040.6269721026637853
 20
1762.7573924327489294
 30
0.0
  0
VERTEX
  5
4AD
  8
0
 10
3220.6269721026637853
 20
1762.7573924327489294
 30
0.0
 42
0.4142135623730951
  0
VERTEX
  5
4AE
  8
0
 10
3230.6269721026637853
 20
1772.7573924327489294
 30
0.0
  0
VERTEX
  5
4AF
  8
0
 10
3230.6269721026637853
 20
1772.7573924327489294
 30
0.0
 42
0.4142135623730951
  0
VERTEX
  5
4B0
  8
0
 10
3220.6269721026637853
 20
1782.7573924327489294
 30
0.0
  0
VERTEX
  5
4B1
  8
0
 10
3040.6269721026637853
 20
1782.7573924327489294
 30
0.0
 42
0.4142135623730951
  0
VERTEX
  5
4B2
  8
0
 10
3030.6269721026637853
 20
1772.7573924327489294
 30
0.0
  0
VERTEX
  5
4B3
  8
0
 10
3030.6269721026637853
 20
1772.7573924327489294
 30
0.0
 42
0.4142135623730951
  0
SEQEND
  5
4B4
  8
0
  0
POLYLINE
  5
295
  8
0
 66
     1
 10
0.0
 20
0.0
 30
0.0
  0
VERTEX
  5
4B5
  8
0
 10
3038.6269721026619663
 20
1768.7573924327489294
 30
0.0
  0
VERTEX
  5
4B6
  8
0
 10
3040.6269721026628758
 20
1768.7573924327489294
 30
0.0
  0
VERTEX
  5
4B7
  8
0
 10
3040.6269721026628758
 20
1768.7573924327489294
 30
0.0
 42
0.4142135623730951
  0
VERTEX
  5
4B8
  8
0
 10
3044.6269721026628758
 20
1772.7573924327489294
 30
0.0
 42
0.4142135623730951
  0
VERTEX
  5
4B9
  8
0
 10
3040.6269721026628758
 20
1776.7573924327489294
 30
0.0
  0
VERTEX
  5
4BA
  8
0
 10
3040.6269721026628758
 20
1776.7573924327489294
 30
0.0
  0
VERTEX
  5
4BB
  8
0
 10
3038.6269721026628758
 20
1776.7573924327489294
 30
0.0
  0
SEQEND
  5
4BC
  8
0
  0
POLYLINE
  5
44F
  8
0
 66
     1
 10
0.0
 20
0.0
 30
0.0
  0
VERTEX
  5
4BD
  8
0
 10
3050.40359927117197
 20
1768.7573924327489294
 30
0.0
  0
VERTEX
  5
4BE
  8
0
 10
3052.4035992711728795
 20
1768.7573924327489294
 30
0.0
  0
VERTEX
  5
4BF
  8
0
 10
3052.4035992711728795
 20
1768.7573924327489294
 30
0.0
 42
0.4142135623730951
  0
VERTEX
  5
4C0
  8
0
 10
3056.4035992711728795
 20
1772.7573924327489294
 30
0.0
 42
0.4142135623730951
  0
VERTEX
  5
4C1
  8
0
 10
3052.4035992711728795
 20
1776.7573924327489294
 30
0.0
  0
VERTEX
  5
4C2
  8
0
 10
3052.4035992711728795
 20
1776.7573924327489294
 30
0.0
  0
VERTEX
  5
4C3
  8
0
 10
3050.40359927117197
 20
1776.7573924327489294
 30
0.0
  0
SEQEND
  5
4C4
  8
0
  0
POLYLINE
  5
450
  8
0
 66
     1
 10
0.0
 20
0.0
 30
0.0
  0
VERTEX
  5
4C5
  8
0
 10
3062.1802264396810642
 20
1768.7573924327489294
 30
0.0
  0
VERTEX
  5
4C6
  8
0
 10
3064.1802264396819737
 20
1768.7573924327489294
 30
0.0
  0
VERTEX
  5
4C7
  8
0
 10
3064.1802264396819737
 20
1768.7573924327489294
 30
0.0
 42
0.4142135623730951
  0
VERTEX
  5
4C8
  8
0
 10
3068.1802264396819737
 20
1772.7573924327489294
 30
0.0
 42
0.4142135623730951
  0
VERTEX
  5
4C9
  8
0
 10
3064.1802264396819737
 20
1776.7573924327489294
 30
0.0
  0
VERTEX
  5
4CA
  8
0
 10
3064.1802264396819737
 20
1776.7573924327489294
 30
0.0
  0
VERTEX
  5
4CB
  8
0
 10
3062.1802264396819737
 20
1776.7573924327489294
 30
0.0
  0
SEQEND
  5
4CC
  8
0
  0
POLYLINE
  5
451
  8
0
 66
     1
 10
0.0
 20
0.0
 30
0.0
  0
VERTEX
  5
4CD
  8
0
 10
3073.9568536081910679
 20
1768.7573924327489294
 30
0.0
  0
VERTEX
  5
4CE
  8
0
 10
3075.9568536081919774
 20
1768.7573924327489294
 30
0.0
  0
VERTEX
  5
4CF
  8
0
 10
3075.9568536081919774
 20
1768.7573924327489294
 30
0.0
 42
0.4142135623730951
  0
VERTEX
  5
4D0
  8
0
 10
3079.9568536081919774
 20
1772.7573924327489294
 30
0.0
 42
0.4142135623730951
  0
VERTEX
  5
4D1
  8
0
 10
3075.9568536081919774
 20
1776.7573924327489294
 30
0.0
  0
VERTEX
  5
4D2
  8
0
 10
3075.9568536081919774
 20
1776.7573924327489294
 30
0.0
  0
VERTEX
  5
4D3
  8
0
 10
3073.9568536081919774
 20
1776.7573924327489294
 30
0.0
  0
SEQEND
  5
4D4
  8
0
  0
POLYLINE
  5
452
  8
0
 66
     1
 10
0.0
 20
0.0
 30
0.0
  0
VERTEX
  5
4D5
  8
0
 10
3085.7334807767001621
 20
1768.7573924327489294
 30
0.0
  0
VERTEX
  5
4D6
  8
0
 10
3087.7334807767010716
 20
1768.7573924327489294
 30
0.0
  0
VERTEX
  5
4D7
  8
0
 10
3087.7334807767010716
 20
1768.7573924327489294
 30
0.0
 42
0.4142135623730951
  0
VERTEX
  5
4D8
  8
0
 10
3091.7334807767019811
 20
1772.7573924327489294
 30
0.0
 42
0.4142135623730951
  0
VERTEX
  5
4D9
  8
0
 10
3087.7334807767010716
 20
1776.7573924327489294
 30
0.0
  0
VERTEX
  5
4DA
  8
0
 10
3087.7334807767010716
 20
1776.7573924327489294
 30
0.0
  0
VERTEX
  5
4DB
  8
0
 10
3085.7334807767010716
 20
1776.7573924327489294
 30
0.0
  0
SEQEND
  5
4DC
  8
0
  0
POLYLINE
  5
453
  8
0
 66
     1
 10
0.0
 20
0.0
 30
0.0
  0
VERTEX
  5
4DD
  8
0
 10
3222.6269721027661035
 20
1768.7573924334019466
 30
0.0
  0
VERTEX
  5
4DE
  8
0
 10
3220.626972102765194
 20
1768.75739243338694
 30
0.0
  0
VERTEX
  5
4DF
  8
0
 10
3220.626972102765194
 20
1768.75739243338694
 30
0.0
 42
-0.4142135623730951
  0
VERTEX
  5
4E0
  8
0
 10
3216.6269721027360902
 20
1772.757392433358973
 30
0.0
 42
-0.4142135623730951
  0
VERTEX
  5
4E1
  8
0
 10
3220.6269721027078958
 20
1776.75739243338694
 30
0.0
  0
VERTEX
  5
4E2
  8
0
 10
3220.6269721027078958
 20
1776.75739243338694
 30
0.0
  0
VERTEX
  5
4E3
  8
0
 10
3222.6269721027078958
 20
1776.7573924334010371
 30
0.0
  0
SEQEND
  5
4E4
  8
0
  0
POLYLINE
  5
454
  8
0
 66
     1
 10
0.0
 20
0.0
 30
0.0
  0
VERTEX
  5
4E5
  8
0
 10
3210.8503449342560998
 20
1768.7573924333180457
 30
0.0
  0
VERTEX
  5
4E6
  8
0
 10
3208.8503449342551903
 20
1768.7573924333039486
 30
0.0
  0
VERTEX
  5
4E7
  8
0
 10
3208.8503449342551903
 20
1768.7573924333039486
 30
0.0
 42
-0.4142135623730951
  0
VERTEX
  5
4E8
  8
0
 10
3204.8503449342260865
 20
1772.7573924332750721
 30
0.0
 42
-0.4142135623730951
  0
VERTEX
  5
4E9
  8
0
 10
3208.8503449341978921
 20
1776.7573924333039486
 30
0.0
  0
VERTEX
  5
4EA
  8
0
 10
3208.8503449341978921
 20
1776.7573924333039486
 30
0.0
  0
VERTEX
  5
4EB
  8
0
 10
3210.8503449341978921
 20
1776.7573924333180457
 30
0.0
  0
SEQEND
  5
4EC
  8
0
  0
POLYLINE
  5
455
  8
0
 66
     1
 10
0.0
 20
0.0
 30
0.0
  0
VERTEX
  5
4ED
  8
0
 10
3199.0737177657460961
 20
1768.7573924332350543
 30
0.0
  0
VERTEX
  5
4EE
  8
0
 10
3197.0737177657451866
 20
1768.7573924332200477
 30
0.0
  0
VERTEX
  5
4EF
  8
0
 10
3197.0737177657451866
 20
1768.7573924332200477
 30
0.0
 42
-0.4142135623730951
  0
VERTEX
  5
4F0
  8
0
 10
3193.0737177657169923
 20
1772.7573924331920807
 30
0.0
 42
-0.4142135623730951
  0
VERTEX
  5
4F1
  8
0
 10
3197.073717765688798
 20
1776.7573924332200477
 30
0.0
  0
VERTEX
  5
4F2
  8
0
 10
3197.073717765688798
 20
1776.7573924332200477
 30
0.0
  0
VERTEX
  5
4F3
  8
0
 10
3199.073717765688798
 20
1776.7573924332339175
 30
0.0
  0
SEQEND
  5
4F4
  8
0
  0
POLYLINE
  5
456
  8
0
 66
     1
 10
0.0
 20
0.0
 30
0.0
  0
VERTEX
  5
4F5
  8
0
 10
3187.2970905972370019
 20
1768.7573924331509261
 30
0.0
  0
VERTEX
  5
4F6
  8
0
 10
3185.2970905972360924
 20
1768.7573924331370563
 30
0.0
  0
VERTEX
  5
4F7
  8
0
 10
3185.2970905972360924
 20
1768.7573924331370563
 30
0.0
 42
-0.4142135623730951
  0
VERTEX
  5
4F8
  8
0
 10
3181.2970905972078981
 20
1772.7573924331079525
 30
0.0
 42
-0.4142135623730951
  0
VERTEX
  5
4F9
  8
0
 10
3185.2970905971801585
 20
1776.7573924331370563
 30
0.0
  0
VERTEX
  5
4FA
  8
0
 10
3185.2970905971801585
 20
1776.7573924331370563
 30
0.0
  0
VERTEX
  5
4FB
  8
0
 10
3187.2970905971801585
 20
1776.7573924331509261
 30
0.0
  0
SEQEND
  5
4FC
  8
0
  0
POLYLINE
  5
457
  8
0
 66
     1
 10
0.0
 20
0.0
 30
0.0
  0
VERTEX
  5
4FD
  8
0
 10
3175.5204634287269982
 20
1768.7573924330670252
 30
0.0
  0
VERTEX
  5
4FE
  8
0
 10
3173.5204634287260888
 20
1768.757392433052928
 30
0.0
  0
VERTEX
  5
4FF
  8
0
 10
3173.5204634287260888
 20
1768.757392433052928
 30
0.0
 42
-0.4142135623730951
  0
VERTEX
  5
500
  8
0
 10
3169.5204634286978944
 20
1772.7573924330249611
 30
0.0
 42
-0.4142135623730951
  0
VERTEX
  5
501
  8
0
 10
3173.5204634286701548
 20
1776.757392433052928
 30
0.0
  0
VERTEX
  5
502
  8
0
 10
3173.5204634286701548
 20
1776.757392433052928
 30
0.0
  0
VERTEX
  5
503
  8
0
 10
3175.5204634286701548
 20
1776.7573924330679347
 30
0.0
  0
SEQEND
  5
504
  8
0
  0
ENDSEC
  0
EOF
